<svg xmlns="http://www.w3.org/2000/svg" version="1.1" xmlns:xlink="http://www.w3.org/1999/xlink" xmlns:svgjs="http://svgjs.dev/svgjs" viewBox="0 0 2400 800"><defs><linearGradient x1="50%" y1="0%" x2="50%" y2="100%" id="sssurf-grad"><stop stop-color="#FF2526" stop-opacity="1" offset="0%"></stop><stop stop-color="hsla(360, 98%, 22%, 1.00)" stop-opacity="1" offset="100%"></stop></linearGradient></defs><g fill="url(#sssurf-grad)" transform="matrix(1,0,0,1,0,-162.05831909179688)"><path d="M 0 295.1928685895946 Q 360 633.1598313344663 480 352.89302946322005 Q 840 532.5523386188522 960 277.415859884356 Q 1320 539.6638739032547 1440 276.11664178384694 Q 1800 497.63094782616497 1920 354.7935060449232 Q 2280 615.3220406625952 2400 347.32172937152495 L 2400 800 L 0 800 L 0 287.16814360203637 Z" transform="matrix(1,0,0,1,0,56)" opacity="0.05"></path><path d="M 0 295.1928685895946 Q 360 633.1598313344663 480 352.89302946322005 Q 840 532.5523386188522 960 277.415859884356 Q 1320 539.6638739032547 1440 276.11664178384694 Q 1800 497.63094782616497 1920 354.7935060449232 Q 2280 615.3220406625952 2400 347.32172937152495 L 2400 800 L 0 800 L 0 287.16814360203637 Z" transform="matrix(1,0,0,1,0,112)" opacity="0.21"></path><path d="M 0 295.1928685895946 Q 360 633.1598313344663 480 352.89302946322005 Q 840 532.5523386188522 960 277.415859884356 Q 1320 539.6638739032547 1440 276.11664178384694 Q 1800 497.63094782616497 1920 354.7935060449232 Q 2280 615.3220406625952 2400 347.32172937152495 L 2400 800 L 0 800 L 0 287.16814360203637 Z" transform="matrix(1,0,0,1,0,168)" opacity="0.37"></path><path d="M 0 295.1928685895946 Q 360 633.1598313344663 480 352.89302946322005 Q 840 532.5523386188522 960 277.415859884356 Q 1320 539.6638739032547 1440 276.11664178384694 Q 1800 497.63094782616497 1920 354.7935060449232 Q 2280 615.3220406625952 2400 347.32172937152495 L 2400 800 L 0 800 L 0 287.16814360203637 Z" transform="matrix(1,0,0,1,0,224)" opacity="0.53"></path><path d="M 0 295.1928685895946 Q 360 633.1598313344663 480 352.89302946322005 Q 840 532.5523386188522 960 277.415859884356 Q 1320 539.6638739032547 1440 276.11664178384694 Q 1800 497.63094782616497 1920 354.7935060449232 Q 2280 615.3220406625952 2400 347.32172937152495 L 2400 800 L 0 800 L 0 287.16814360203637 Z" transform="matrix(1,0,0,1,0,280)" opacity="0.68"></path><path d="M 0 295.1928685895946 Q 360 633.1598313344663 480 352.89302946322005 Q 840 532.5523386188522 960 277.415859884356 Q 1320 539.6638739032547 1440 276.11664178384694 Q 1800 497.63094782616497 1920 354.7935060449232 Q 2280 615.3220406625952 2400 347.32172937152495 L 2400 800 L 0 800 L 0 287.16814360203637 Z" transform="matrix(1,0,0,1,0,336)" opacity="0.84"></path><path d="M 0 295.1928685895946 Q 360 633.1598313344663 480 352.89302946322005 Q 840 532.5523386188522 960 277.415859884356 Q 1320 539.6638739032547 1440 276.11664178384694 Q 1800 497.63094782616497 1920 354.7935060449232 Q 2280 615.3220406625952 2400 347.32172937152495 L 2400 800 L 0 800 L 0 287.16814360203637 Z" transform="matrix(1,0,0,1,0,392)" opacity="1"></path></g></svg>