<svg xmlns="http://www.w3.org/2000/svg" version="1.1" xmlns:xlink="http://www.w3.org/1999/xlink" xmlns:svgjs="http://svgjs.dev/svgjs" viewBox="0 0 800 800" id="qqquad"><g shape-rendering="crispEdges" stroke-linejoin="round" fill="#fb152c"><polygon points="800,100 800,0 700,0"></polygon><polygon points="700,100 700,0 600,0"></polygon><polygon points="700,200 700,100 600,200"></polygon><polygon points="700,200 800,100 800,200"></polygon><polygon points="500,0 600,0 600,100"></polygon><polygon points="500,0 400,100 400,0"></polygon><polygon points="500,100 500,200 400,100"></polygon><polygon points="600,150 550,150 600,100"></polygon><polygon points="500,100 550,150 550,100"></polygon><polygon points="550,200 550,150 500,150"></polygon><polygon points="600,200 550,150 600,150"></polygon><polygon points="600,200 500,300 500,200"></polygon><polygon points="500,200 500,300 400,300"></polygon><polygon points="500,400 500,300 400,300"></polygon><polygon points="600,400 600,300 500,300"></polygon><polygon points="800,400 800,200 600,200"></polygon><polygon points="400,0 400,200 200,200"></polygon><polygon points="200,0 0,200 200,200"></polygon><polygon points="200,200 200,300 100,300"></polygon><polygon points="100,300 100,200 0,300"></polygon><polygon points="100,400 0,400 100,300"></polygon><polygon points="100,400 200,400 100,300"></polygon><polygon points="400,300 300,300 400,200"></polygon><polygon points="200,200 200,300 300,300"></polygon><polygon points="200,300 300,300 200,400"></polygon><polygon points="400,400 400,300 300,400"></polygon><polygon points="400,500 400,400 300,400"></polygon><polygon points="300,400 300,500 200,500"></polygon><polygon points="300,600 200,600 200,500"></polygon><polygon points="400,600 400,500 300,600"></polygon><polygon points="100,500 200,500 200,400"></polygon><polygon points="0,400 100,500 0,500"></polygon><polygon points="0,600 0,500 100,500"></polygon><polygon points="200,500 200,600 100,600"></polygon><polygon points="0,600 200,800 0,800"></polygon><polygon points="300,600 400,700 400,600"></polygon><polygon points="200,600 300,600 200,700"></polygon><polygon points="200,700 300,700 300,800"></polygon><polygon points="300,800 400,700 400,800"></polygon><polygon points="700,400 800,500 800,400"></polygon><polygon points="700,400 600,400 700,500"></polygon><polygon points="600,500 700,600 600,600"></polygon><polygon points="800,500 700,500 800,600"></polygon><polygon points="600,400 600,500 500,500"></polygon><polygon points="500,450 450,450 500,400"></polygon><polygon points="450,400 450,450 400,450"></polygon><polygon points="450,500 400,450 450,450"></polygon><polygon points="500,450 450,450 500,500"></polygon><polygon points="500,500 450,550 500,550"></polygon><polygon points="400,500 450,550 450,500"></polygon><polygon points="450,550 400,600 450,600"></polygon><polygon points="500,600 450,600 500,550"></polygon><polygon points="500,500 600,500 500,600"></polygon><polygon points="600,600 500,700 600,700"></polygon><polygon points="400,600 500,700 400,700"></polygon><polygon points="400,800 500,700 400,700"></polygon><polygon points="600,800 600,700 500,800"></polygon><polygon points="800,700 700,600 700,700"></polygon><polygon points="700,600 600,600 600,700"></polygon><polygon points="600,700 700,700 700,800"></polygon><polygon points="800,800 700,700 800,700"></polygon></g><g fill="hsl(220, 62%, 45%)" stroke-width="3" stroke="hsl(220, 43%, 13%)"></g></svg>