<?xml version="1.0" standalone="no"?>
<!DOCTYPE svg PUBLIC "-//W3C//DTD SVG 20010904//EN"
 "http://www.w3.org/TR/2001/REC-SVG-20010904/DTD/svg10.dtd">
<svg version="1.0" xmlns="http://www.w3.org/2000/svg"
 width="16.000000pt" height="16.000000pt" viewBox="0 0 16.000000 16.000000"
 preserveAspectRatio="xMidYMid meet">

<g transform="translate(0.000000,16.000000) scale(0.100000,-0.100000)"
fill="#000000" stroke="none">
<path d="M31 134 c-47 -39 -40 -93 16 -122 34 -18 52 -14 84 17 37 37 37 65 0
102 -36 36 -60 37 -100 3z m76 -4 c3 -11 12 -20 19 -20 8 0 17 -7 20 -15 8
-20 -13 -45 -32 -38 -9 3 -12 0 -9 -9 3 -8 -1 -21 -10 -28 -13 -11 -21 -8 -51
23 -36 36 -41 67 -10 67 8 0 18 9 21 20 4 11 15 20 27 20 11 0 22 -8 25 -20z"/>
<path d="M65 131 c-7 -12 12 -24 25 -16 11 7 4 25 -10 25 -5 0 -11 -4 -15 -9z"/>
<path d="M31 93 c-13 -9 -13 -14 -4 -24 10 -10 15 -7 23 12 10 24 10 24 7 -3
-5 -32 15 -64 32 -54 6 4 11 13 10 19 -1 7 -1 23 0 37 l2 25 10 -24 c7 -19 12
-22 21 -13 9 9 9 15 1 23 -15 15 -82 17 -102 2z m59 -17 c0 -8 -6 -16 -14 -19
-10 -4 -12 0 -9 14 6 22 23 26 23 5z"/>
</g>
</svg>
