<svg xmlns="http://www.w3.org/2000/svg" version="1.1" xmlns:xlink="http://www.w3.org/1999/xlink" xmlns:svgjs="http://svgjs.dev/svgjs" viewBox="0 0 800 800" opacity="0.5"><g stroke-width="10.5" stroke="#7f0913" fill="none" stroke-linecap="round" transform="matrix(1,0,0,1,-5,-1108.4115676879883)"><path d="M10,10C17.720588235294116,19.583333333333336,29.534313725490197,65.16666666666667,47.05882352941177,56C64.58333333333334,46.833333333333336,74.50980392156863,-33.375,94.11764705882354,-34C113.72549019607844,-34.625,121.5686274509804,50.291666666666664,141.1764705882353,53C160.78431372549022,55.708333333333336,168.62745098039215,-22.666666666666668,188.23529411764707,-21C207.843137254902,-19.333333333333332,215.68627450980392,62.666666666666664,235.29411764705884,61C254.90196078431376,59.333333333333336,262.7450980392157,-25.25,282.3529411764706,-29C301.9607843137255,-32.75,309.80392156862746,45.916666666666664,329.4117647058824,43C349.0196078431373,40.083333333333336,356.8627450980392,-49.041666666666664,376.47058823529414,-43C396.07843137254906,-36.958333333333336,403.921568627451,66.16666666666667,423.5294117647059,72C443.13725490196083,77.83333333333333,450.98039215686276,-16.25,470.5882352941177,-15C490.1960784313726,-13.75,498.0392156862746,76.125,517.6470588235295,78C537.2549019607844,79.875,545.0980392156863,-6,564.7058823529412,-6C584.3137254901961,-6,592.156862745098,81.75,611.7647058823529,78C631.3725490196078,74.25,639.2156862745098,-17.541666666666664,658.8235294117648,-24C678.4313725490197,-30.458333333333336,686.2745098039217,46.375,705.8823529411766,47C725.4901960784315,47.625,733.3333333333334,-23.083333333333332,752.9411764705883,-21C772.5490196078432,-18.916666666666668,790.1960784313726,40.75,800,57"></path><path d="M10,10C17.720588235294116,19.583333333333336,29.534313725490197,65.16666666666667,47.05882352941177,56C64.58333333333334,46.833333333333336,74.50980392156863,-33.375,94.11764705882354,-34C113.72549019607844,-34.625,121.5686274509804,50.291666666666664,141.1764705882353,53C160.78431372549022,55.708333333333336,168.62745098039215,-22.666666666666668,188.23529411764707,-21C207.843137254902,-19.333333333333332,215.68627450980392,62.666666666666664,235.29411764705884,61C254.90196078431376,59.333333333333336,262.7450980392157,-25.25,282.3529411764706,-29C301.9607843137255,-32.75,309.80392156862746,45.916666666666664,329.4117647058824,43C349.0196078431373,40.083333333333336,356.8627450980392,-49.041666666666664,376.47058823529414,-43C396.07843137254906,-36.958333333333336,403.921568627451,66.16666666666667,423.5294117647059,72C443.13725490196083,77.83333333333333,450.98039215686276,-16.25,470.5882352941177,-15C490.1960784313726,-13.75,498.0392156862746,76.125,517.6470588235295,78C537.2549019607844,79.875,545.0980392156863,-6,564.7058823529412,-6C584.3137254901961,-6,592.156862745098,81.75,611.7647058823529,78C631.3725490196078,74.25,639.2156862745098,-17.541666666666664,658.8235294117648,-24C678.4313725490197,-30.458333333333336,686.2745098039217,46.375,705.8823529411766,47C725.4901960784315,47.625,733.3333333333334,-23.083333333333332,752.9411764705883,-21C772.5490196078432,-18.916666666666668,790.1960784313726,40.75,800,57" transform="matrix(1,0,0,1,0,2982)"></path><path d="M10,10C17.720588235294116,19.583333333333336,29.534313725490197,65.16666666666667,47.05882352941177,56C64.58333333333334,46.833333333333336,74.50980392156863,-33.375,94.11764705882354,-34C113.72549019607844,-34.625,121.5686274509804,50.291666666666664,141.1764705882353,53C160.78431372549022,55.708333333333336,168.62745098039215,-22.666666666666668,188.23529411764707,-21C207.843137254902,-19.333333333333332,215.68627450980392,62.666666666666664,235.29411764705884,61C254.90196078431376,59.333333333333336,262.7450980392157,-25.25,282.3529411764706,-29C301.9607843137255,-32.75,309.80392156862746,45.916666666666664,329.4117647058824,43C349.0196078431373,40.083333333333336,356.8627450980392,-49.041666666666664,376.47058823529414,-43C396.07843137254906,-36.958333333333336,403.921568627451,66.16666666666667,423.5294117647059,72C443.13725490196083,77.83333333333333,450.98039215686276,-16.25,470.5882352941177,-15C490.1960784313726,-13.75,498.0392156862746,76.125,517.6470588235295,78C537.2549019607844,79.875,545.0980392156863,-6,564.7058823529412,-6C584.3137254901961,-6,592.156862745098,81.75,611.7647058823529,78C631.3725490196078,74.25,639.2156862745098,-17.541666666666664,658.8235294117648,-24C678.4313725490197,-30.458333333333336,686.2745098039217,46.375,705.8823529411766,47C725.4901960784315,47.625,733.3333333333334,-23.083333333333332,752.9411764705883,-21C772.5490196078432,-18.916666666666668,790.1960784313726,40.75,800,57" transform="matrix(1,0,0,1,0,2911)"></path><path d="M10,10C17.720588235294116,19.583333333333336,29.534313725490197,65.16666666666667,47.05882352941177,56C64.58333333333334,46.833333333333336,74.50980392156863,-33.375,94.11764705882354,-34C113.72549019607844,-34.625,121.5686274509804,50.291666666666664,141.1764705882353,53C160.78431372549022,55.708333333333336,168.62745098039215,-22.666666666666668,188.23529411764707,-21C207.843137254902,-19.333333333333332,215.68627450980392,62.666666666666664,235.29411764705884,61C254.90196078431376,59.333333333333336,262.7450980392157,-25.25,282.3529411764706,-29C301.9607843137255,-32.75,309.80392156862746,45.916666666666664,329.4117647058824,43C349.0196078431373,40.083333333333336,356.8627450980392,-49.041666666666664,376.47058823529414,-43C396.07843137254906,-36.958333333333336,403.921568627451,66.16666666666667,423.5294117647059,72C443.13725490196083,77.83333333333333,450.98039215686276,-16.25,470.5882352941177,-15C490.1960784313726,-13.75,498.0392156862746,76.125,517.6470588235295,78C537.2549019607844,79.875,545.0980392156863,-6,564.7058823529412,-6C584.3137254901961,-6,592.156862745098,81.75,611.7647058823529,78C631.3725490196078,74.25,639.2156862745098,-17.541666666666664,658.8235294117648,-24C678.4313725490197,-30.458333333333336,686.2745098039217,46.375,705.8823529411766,47C725.4901960784315,47.625,733.3333333333334,-23.083333333333332,752.9411764705883,-21C772.5490196078432,-18.916666666666668,790.1960784313726,40.75,800,57" transform="matrix(1,0,0,1,0,2840)"></path><path d="M10,10C17.720588235294116,19.583333333333336,29.534313725490197,65.16666666666667,47.05882352941177,56C64.58333333333334,46.833333333333336,74.50980392156863,-33.375,94.11764705882354,-34C113.72549019607844,-34.625,121.5686274509804,50.291666666666664,141.1764705882353,53C160.78431372549022,55.708333333333336,168.62745098039215,-22.666666666666668,188.23529411764707,-21C207.843137254902,-19.333333333333332,215.68627450980392,62.666666666666664,235.29411764705884,61C254.90196078431376,59.333333333333336,262.7450980392157,-25.25,282.3529411764706,-29C301.9607843137255,-32.75,309.80392156862746,45.916666666666664,329.4117647058824,43C349.0196078431373,40.083333333333336,356.8627450980392,-49.041666666666664,376.47058823529414,-43C396.07843137254906,-36.958333333333336,403.921568627451,66.16666666666667,423.5294117647059,72C443.13725490196083,77.83333333333333,450.98039215686276,-16.25,470.5882352941177,-15C490.1960784313726,-13.75,498.0392156862746,76.125,517.6470588235295,78C537.2549019607844,79.875,545.0980392156863,-6,564.7058823529412,-6C584.3137254901961,-6,592.156862745098,81.75,611.7647058823529,78C631.3725490196078,74.25,639.2156862745098,-17.541666666666664,658.8235294117648,-24C678.4313725490197,-30.458333333333336,686.2745098039217,46.375,705.8823529411766,47C725.4901960784315,47.625,733.3333333333334,-23.083333333333332,752.9411764705883,-21C772.5490196078432,-18.916666666666668,790.1960784313726,40.75,800,57" transform="matrix(1,0,0,1,0,2769)"></path><path d="M10,10C17.720588235294116,19.583333333333336,29.534313725490197,65.16666666666667,47.05882352941177,56C64.58333333333334,46.833333333333336,74.50980392156863,-33.375,94.11764705882354,-34C113.72549019607844,-34.625,121.5686274509804,50.291666666666664,141.1764705882353,53C160.78431372549022,55.708333333333336,168.62745098039215,-22.666666666666668,188.23529411764707,-21C207.843137254902,-19.333333333333332,215.68627450980392,62.666666666666664,235.29411764705884,61C254.90196078431376,59.333333333333336,262.7450980392157,-25.25,282.3529411764706,-29C301.9607843137255,-32.75,309.80392156862746,45.916666666666664,329.4117647058824,43C349.0196078431373,40.083333333333336,356.8627450980392,-49.041666666666664,376.47058823529414,-43C396.07843137254906,-36.958333333333336,403.921568627451,66.16666666666667,423.5294117647059,72C443.13725490196083,77.83333333333333,450.98039215686276,-16.25,470.5882352941177,-15C490.1960784313726,-13.75,498.0392156862746,76.125,517.6470588235295,78C537.2549019607844,79.875,545.0980392156863,-6,564.7058823529412,-6C584.3137254901961,-6,592.156862745098,81.75,611.7647058823529,78C631.3725490196078,74.25,639.2156862745098,-17.541666666666664,658.8235294117648,-24C678.4313725490197,-30.458333333333336,686.2745098039217,46.375,705.8823529411766,47C725.4901960784315,47.625,733.3333333333334,-23.083333333333332,752.9411764705883,-21C772.5490196078432,-18.916666666666668,790.1960784313726,40.75,800,57" transform="matrix(1,0,0,1,0,2698)"></path><path d="M10,10C17.720588235294116,19.583333333333336,29.534313725490197,65.16666666666667,47.05882352941177,56C64.58333333333334,46.833333333333336,74.50980392156863,-33.375,94.11764705882354,-34C113.72549019607844,-34.625,121.5686274509804,50.291666666666664,141.1764705882353,53C160.78431372549022,55.708333333333336,168.62745098039215,-22.666666666666668,188.23529411764707,-21C207.843137254902,-19.333333333333332,215.68627450980392,62.666666666666664,235.29411764705884,61C254.90196078431376,59.333333333333336,262.7450980392157,-25.25,282.3529411764706,-29C301.9607843137255,-32.75,309.80392156862746,45.916666666666664,329.4117647058824,43C349.0196078431373,40.083333333333336,356.8627450980392,-49.041666666666664,376.47058823529414,-43C396.07843137254906,-36.958333333333336,403.921568627451,66.16666666666667,423.5294117647059,72C443.13725490196083,77.83333333333333,450.98039215686276,-16.25,470.5882352941177,-15C490.1960784313726,-13.75,498.0392156862746,76.125,517.6470588235295,78C537.2549019607844,79.875,545.0980392156863,-6,564.7058823529412,-6C584.3137254901961,-6,592.156862745098,81.75,611.7647058823529,78C631.3725490196078,74.25,639.2156862745098,-17.541666666666664,658.8235294117648,-24C678.4313725490197,-30.458333333333336,686.2745098039217,46.375,705.8823529411766,47C725.4901960784315,47.625,733.3333333333334,-23.083333333333332,752.9411764705883,-21C772.5490196078432,-18.916666666666668,790.1960784313726,40.75,800,57" transform="matrix(1,0,0,1,0,2627)"></path><path d="M10,10C17.720588235294116,19.583333333333336,29.534313725490197,65.16666666666667,47.05882352941177,56C64.58333333333334,46.833333333333336,74.50980392156863,-33.375,94.11764705882354,-34C113.72549019607844,-34.625,121.5686274509804,50.291666666666664,141.1764705882353,53C160.78431372549022,55.708333333333336,168.62745098039215,-22.666666666666668,188.23529411764707,-21C207.843137254902,-19.333333333333332,215.68627450980392,62.666666666666664,235.29411764705884,61C254.90196078431376,59.333333333333336,262.7450980392157,-25.25,282.3529411764706,-29C301.9607843137255,-32.75,309.80392156862746,45.916666666666664,329.4117647058824,43C349.0196078431373,40.083333333333336,356.8627450980392,-49.041666666666664,376.47058823529414,-43C396.07843137254906,-36.958333333333336,403.921568627451,66.16666666666667,423.5294117647059,72C443.13725490196083,77.83333333333333,450.98039215686276,-16.25,470.5882352941177,-15C490.1960784313726,-13.75,498.0392156862746,76.125,517.6470588235295,78C537.2549019607844,79.875,545.0980392156863,-6,564.7058823529412,-6C584.3137254901961,-6,592.156862745098,81.75,611.7647058823529,78C631.3725490196078,74.25,639.2156862745098,-17.541666666666664,658.8235294117648,-24C678.4313725490197,-30.458333333333336,686.2745098039217,46.375,705.8823529411766,47C725.4901960784315,47.625,733.3333333333334,-23.083333333333332,752.9411764705883,-21C772.5490196078432,-18.916666666666668,790.1960784313726,40.75,800,57" transform="matrix(1,0,0,1,0,2556)"></path><path d="M10,10C17.720588235294116,19.583333333333336,29.534313725490197,65.16666666666667,47.05882352941177,56C64.58333333333334,46.833333333333336,74.50980392156863,-33.375,94.11764705882354,-34C113.72549019607844,-34.625,121.5686274509804,50.291666666666664,141.1764705882353,53C160.78431372549022,55.708333333333336,168.62745098039215,-22.666666666666668,188.23529411764707,-21C207.843137254902,-19.333333333333332,215.68627450980392,62.666666666666664,235.29411764705884,61C254.90196078431376,59.333333333333336,262.7450980392157,-25.25,282.3529411764706,-29C301.9607843137255,-32.75,309.80392156862746,45.916666666666664,329.4117647058824,43C349.0196078431373,40.083333333333336,356.8627450980392,-49.041666666666664,376.47058823529414,-43C396.07843137254906,-36.958333333333336,403.921568627451,66.16666666666667,423.5294117647059,72C443.13725490196083,77.83333333333333,450.98039215686276,-16.25,470.5882352941177,-15C490.1960784313726,-13.75,498.0392156862746,76.125,517.6470588235295,78C537.2549019607844,79.875,545.0980392156863,-6,564.7058823529412,-6C584.3137254901961,-6,592.156862745098,81.75,611.7647058823529,78C631.3725490196078,74.25,639.2156862745098,-17.541666666666664,658.8235294117648,-24C678.4313725490197,-30.458333333333336,686.2745098039217,46.375,705.8823529411766,47C725.4901960784315,47.625,733.3333333333334,-23.083333333333332,752.9411764705883,-21C772.5490196078432,-18.916666666666668,790.1960784313726,40.75,800,57" transform="matrix(1,0,0,1,0,2485)"></path><path d="M10,10C17.720588235294116,19.583333333333336,29.534313725490197,65.16666666666667,47.05882352941177,56C64.58333333333334,46.833333333333336,74.50980392156863,-33.375,94.11764705882354,-34C113.72549019607844,-34.625,121.5686274509804,50.291666666666664,141.1764705882353,53C160.78431372549022,55.708333333333336,168.62745098039215,-22.666666666666668,188.23529411764707,-21C207.843137254902,-19.333333333333332,215.68627450980392,62.666666666666664,235.29411764705884,61C254.90196078431376,59.333333333333336,262.7450980392157,-25.25,282.3529411764706,-29C301.9607843137255,-32.75,309.80392156862746,45.916666666666664,329.4117647058824,43C349.0196078431373,40.083333333333336,356.8627450980392,-49.041666666666664,376.47058823529414,-43C396.07843137254906,-36.958333333333336,403.921568627451,66.16666666666667,423.5294117647059,72C443.13725490196083,77.83333333333333,450.98039215686276,-16.25,470.5882352941177,-15C490.1960784313726,-13.75,498.0392156862746,76.125,517.6470588235295,78C537.2549019607844,79.875,545.0980392156863,-6,564.7058823529412,-6C584.3137254901961,-6,592.156862745098,81.75,611.7647058823529,78C631.3725490196078,74.25,639.2156862745098,-17.541666666666664,658.8235294117648,-24C678.4313725490197,-30.458333333333336,686.2745098039217,46.375,705.8823529411766,47C725.4901960784315,47.625,733.3333333333334,-23.083333333333332,752.9411764705883,-21C772.5490196078432,-18.916666666666668,790.1960784313726,40.75,800,57" transform="matrix(1,0,0,1,0,2414)"></path><path d="M10,10C17.720588235294116,19.583333333333336,29.534313725490197,65.16666666666667,47.05882352941177,56C64.58333333333334,46.833333333333336,74.50980392156863,-33.375,94.11764705882354,-34C113.72549019607844,-34.625,121.5686274509804,50.291666666666664,141.1764705882353,53C160.78431372549022,55.708333333333336,168.62745098039215,-22.666666666666668,188.23529411764707,-21C207.843137254902,-19.333333333333332,215.68627450980392,62.666666666666664,235.29411764705884,61C254.90196078431376,59.333333333333336,262.7450980392157,-25.25,282.3529411764706,-29C301.9607843137255,-32.75,309.80392156862746,45.916666666666664,329.4117647058824,43C349.0196078431373,40.083333333333336,356.8627450980392,-49.041666666666664,376.47058823529414,-43C396.07843137254906,-36.958333333333336,403.921568627451,66.16666666666667,423.5294117647059,72C443.13725490196083,77.83333333333333,450.98039215686276,-16.25,470.5882352941177,-15C490.1960784313726,-13.75,498.0392156862746,76.125,517.6470588235295,78C537.2549019607844,79.875,545.0980392156863,-6,564.7058823529412,-6C584.3137254901961,-6,592.156862745098,81.75,611.7647058823529,78C631.3725490196078,74.25,639.2156862745098,-17.541666666666664,658.8235294117648,-24C678.4313725490197,-30.458333333333336,686.2745098039217,46.375,705.8823529411766,47C725.4901960784315,47.625,733.3333333333334,-23.083333333333332,752.9411764705883,-21C772.5490196078432,-18.916666666666668,790.1960784313726,40.75,800,57" transform="matrix(1,0,0,1,0,2343)"></path><path d="M10,10C17.720588235294116,19.583333333333336,29.534313725490197,65.16666666666667,47.05882352941177,56C64.58333333333334,46.833333333333336,74.50980392156863,-33.375,94.11764705882354,-34C113.72549019607844,-34.625,121.5686274509804,50.291666666666664,141.1764705882353,53C160.78431372549022,55.708333333333336,168.62745098039215,-22.666666666666668,188.23529411764707,-21C207.843137254902,-19.333333333333332,215.68627450980392,62.666666666666664,235.29411764705884,61C254.90196078431376,59.333333333333336,262.7450980392157,-25.25,282.3529411764706,-29C301.9607843137255,-32.75,309.80392156862746,45.916666666666664,329.4117647058824,43C349.0196078431373,40.083333333333336,356.8627450980392,-49.041666666666664,376.47058823529414,-43C396.07843137254906,-36.958333333333336,403.921568627451,66.16666666666667,423.5294117647059,72C443.13725490196083,77.83333333333333,450.98039215686276,-16.25,470.5882352941177,-15C490.1960784313726,-13.75,498.0392156862746,76.125,517.6470588235295,78C537.2549019607844,79.875,545.0980392156863,-6,564.7058823529412,-6C584.3137254901961,-6,592.156862745098,81.75,611.7647058823529,78C631.3725490196078,74.25,639.2156862745098,-17.541666666666664,658.8235294117648,-24C678.4313725490197,-30.458333333333336,686.2745098039217,46.375,705.8823529411766,47C725.4901960784315,47.625,733.3333333333334,-23.083333333333332,752.9411764705883,-21C772.5490196078432,-18.916666666666668,790.1960784313726,40.75,800,57" transform="matrix(1,0,0,1,0,2272)"></path><path d="M10,10C17.720588235294116,19.583333333333336,29.534313725490197,65.16666666666667,47.05882352941177,56C64.58333333333334,46.833333333333336,74.50980392156863,-33.375,94.11764705882354,-34C113.72549019607844,-34.625,121.5686274509804,50.291666666666664,141.1764705882353,53C160.78431372549022,55.708333333333336,168.62745098039215,-22.666666666666668,188.23529411764707,-21C207.843137254902,-19.333333333333332,215.68627450980392,62.666666666666664,235.29411764705884,61C254.90196078431376,59.333333333333336,262.7450980392157,-25.25,282.3529411764706,-29C301.9607843137255,-32.75,309.80392156862746,45.916666666666664,329.4117647058824,43C349.0196078431373,40.083333333333336,356.8627450980392,-49.041666666666664,376.47058823529414,-43C396.07843137254906,-36.958333333333336,403.921568627451,66.16666666666667,423.5294117647059,72C443.13725490196083,77.83333333333333,450.98039215686276,-16.25,470.5882352941177,-15C490.1960784313726,-13.75,498.0392156862746,76.125,517.6470588235295,78C537.2549019607844,79.875,545.0980392156863,-6,564.7058823529412,-6C584.3137254901961,-6,592.156862745098,81.75,611.7647058823529,78C631.3725490196078,74.25,639.2156862745098,-17.541666666666664,658.8235294117648,-24C678.4313725490197,-30.458333333333336,686.2745098039217,46.375,705.8823529411766,47C725.4901960784315,47.625,733.3333333333334,-23.083333333333332,752.9411764705883,-21C772.5490196078432,-18.916666666666668,790.1960784313726,40.75,800,57" transform="matrix(1,0,0,1,0,2201)"></path><path d="M10,10C17.720588235294116,19.583333333333336,29.534313725490197,65.16666666666667,47.05882352941177,56C64.58333333333334,46.833333333333336,74.50980392156863,-33.375,94.11764705882354,-34C113.72549019607844,-34.625,121.5686274509804,50.291666666666664,141.1764705882353,53C160.78431372549022,55.708333333333336,168.62745098039215,-22.666666666666668,188.23529411764707,-21C207.843137254902,-19.333333333333332,215.68627450980392,62.666666666666664,235.29411764705884,61C254.90196078431376,59.333333333333336,262.7450980392157,-25.25,282.3529411764706,-29C301.9607843137255,-32.75,309.80392156862746,45.916666666666664,329.4117647058824,43C349.0196078431373,40.083333333333336,356.8627450980392,-49.041666666666664,376.47058823529414,-43C396.07843137254906,-36.958333333333336,403.921568627451,66.16666666666667,423.5294117647059,72C443.13725490196083,77.83333333333333,450.98039215686276,-16.25,470.5882352941177,-15C490.1960784313726,-13.75,498.0392156862746,76.125,517.6470588235295,78C537.2549019607844,79.875,545.0980392156863,-6,564.7058823529412,-6C584.3137254901961,-6,592.156862745098,81.75,611.7647058823529,78C631.3725490196078,74.25,639.2156862745098,-17.541666666666664,658.8235294117648,-24C678.4313725490197,-30.458333333333336,686.2745098039217,46.375,705.8823529411766,47C725.4901960784315,47.625,733.3333333333334,-23.083333333333332,752.9411764705883,-21C772.5490196078432,-18.916666666666668,790.1960784313726,40.75,800,57" transform="matrix(1,0,0,1,0,2130)"></path><path d="M10,10C17.720588235294116,19.583333333333336,29.534313725490197,65.16666666666667,47.05882352941177,56C64.58333333333334,46.833333333333336,74.50980392156863,-33.375,94.11764705882354,-34C113.72549019607844,-34.625,121.5686274509804,50.291666666666664,141.1764705882353,53C160.78431372549022,55.708333333333336,168.62745098039215,-22.666666666666668,188.23529411764707,-21C207.843137254902,-19.333333333333332,215.68627450980392,62.666666666666664,235.29411764705884,61C254.90196078431376,59.333333333333336,262.7450980392157,-25.25,282.3529411764706,-29C301.9607843137255,-32.75,309.80392156862746,45.916666666666664,329.4117647058824,43C349.0196078431373,40.083333333333336,356.8627450980392,-49.041666666666664,376.47058823529414,-43C396.07843137254906,-36.958333333333336,403.921568627451,66.16666666666667,423.5294117647059,72C443.13725490196083,77.83333333333333,450.98039215686276,-16.25,470.5882352941177,-15C490.1960784313726,-13.75,498.0392156862746,76.125,517.6470588235295,78C537.2549019607844,79.875,545.0980392156863,-6,564.7058823529412,-6C584.3137254901961,-6,592.156862745098,81.75,611.7647058823529,78C631.3725490196078,74.25,639.2156862745098,-17.541666666666664,658.8235294117648,-24C678.4313725490197,-30.458333333333336,686.2745098039217,46.375,705.8823529411766,47C725.4901960784315,47.625,733.3333333333334,-23.083333333333332,752.9411764705883,-21C772.5490196078432,-18.916666666666668,790.1960784313726,40.75,800,57" transform="matrix(1,0,0,1,0,2059)"></path><path d="M10,10C17.720588235294116,19.583333333333336,29.534313725490197,65.16666666666667,47.05882352941177,56C64.58333333333334,46.833333333333336,74.50980392156863,-33.375,94.11764705882354,-34C113.72549019607844,-34.625,121.5686274509804,50.291666666666664,141.1764705882353,53C160.78431372549022,55.708333333333336,168.62745098039215,-22.666666666666668,188.23529411764707,-21C207.843137254902,-19.333333333333332,215.68627450980392,62.666666666666664,235.29411764705884,61C254.90196078431376,59.333333333333336,262.7450980392157,-25.25,282.3529411764706,-29C301.9607843137255,-32.75,309.80392156862746,45.916666666666664,329.4117647058824,43C349.0196078431373,40.083333333333336,356.8627450980392,-49.041666666666664,376.47058823529414,-43C396.07843137254906,-36.958333333333336,403.921568627451,66.16666666666667,423.5294117647059,72C443.13725490196083,77.83333333333333,450.98039215686276,-16.25,470.5882352941177,-15C490.1960784313726,-13.75,498.0392156862746,76.125,517.6470588235295,78C537.2549019607844,79.875,545.0980392156863,-6,564.7058823529412,-6C584.3137254901961,-6,592.156862745098,81.75,611.7647058823529,78C631.3725490196078,74.25,639.2156862745098,-17.541666666666664,658.8235294117648,-24C678.4313725490197,-30.458333333333336,686.2745098039217,46.375,705.8823529411766,47C725.4901960784315,47.625,733.3333333333334,-23.083333333333332,752.9411764705883,-21C772.5490196078432,-18.916666666666668,790.1960784313726,40.75,800,57" transform="matrix(1,0,0,1,0,1988)"></path><path d="M10,10C17.720588235294116,19.583333333333336,29.534313725490197,65.16666666666667,47.05882352941177,56C64.58333333333334,46.833333333333336,74.50980392156863,-33.375,94.11764705882354,-34C113.72549019607844,-34.625,121.5686274509804,50.291666666666664,141.1764705882353,53C160.78431372549022,55.708333333333336,168.62745098039215,-22.666666666666668,188.23529411764707,-21C207.843137254902,-19.333333333333332,215.68627450980392,62.666666666666664,235.29411764705884,61C254.90196078431376,59.333333333333336,262.7450980392157,-25.25,282.3529411764706,-29C301.9607843137255,-32.75,309.80392156862746,45.916666666666664,329.4117647058824,43C349.0196078431373,40.083333333333336,356.8627450980392,-49.041666666666664,376.47058823529414,-43C396.07843137254906,-36.958333333333336,403.921568627451,66.16666666666667,423.5294117647059,72C443.13725490196083,77.83333333333333,450.98039215686276,-16.25,470.5882352941177,-15C490.1960784313726,-13.75,498.0392156862746,76.125,517.6470588235295,78C537.2549019607844,79.875,545.0980392156863,-6,564.7058823529412,-6C584.3137254901961,-6,592.156862745098,81.75,611.7647058823529,78C631.3725490196078,74.25,639.2156862745098,-17.541666666666664,658.8235294117648,-24C678.4313725490197,-30.458333333333336,686.2745098039217,46.375,705.8823529411766,47C725.4901960784315,47.625,733.3333333333334,-23.083333333333332,752.9411764705883,-21C772.5490196078432,-18.916666666666668,790.1960784313726,40.75,800,57" transform="matrix(1,0,0,1,0,1917)"></path><path d="M10,10C17.720588235294116,19.583333333333336,29.534313725490197,65.16666666666667,47.05882352941177,56C64.58333333333334,46.833333333333336,74.50980392156863,-33.375,94.11764705882354,-34C113.72549019607844,-34.625,121.5686274509804,50.291666666666664,141.1764705882353,53C160.78431372549022,55.708333333333336,168.62745098039215,-22.666666666666668,188.23529411764707,-21C207.843137254902,-19.333333333333332,215.68627450980392,62.666666666666664,235.29411764705884,61C254.90196078431376,59.333333333333336,262.7450980392157,-25.25,282.3529411764706,-29C301.9607843137255,-32.75,309.80392156862746,45.916666666666664,329.4117647058824,43C349.0196078431373,40.083333333333336,356.8627450980392,-49.041666666666664,376.47058823529414,-43C396.07843137254906,-36.958333333333336,403.921568627451,66.16666666666667,423.5294117647059,72C443.13725490196083,77.83333333333333,450.98039215686276,-16.25,470.5882352941177,-15C490.1960784313726,-13.75,498.0392156862746,76.125,517.6470588235295,78C537.2549019607844,79.875,545.0980392156863,-6,564.7058823529412,-6C584.3137254901961,-6,592.156862745098,81.75,611.7647058823529,78C631.3725490196078,74.25,639.2156862745098,-17.541666666666664,658.8235294117648,-24C678.4313725490197,-30.458333333333336,686.2745098039217,46.375,705.8823529411766,47C725.4901960784315,47.625,733.3333333333334,-23.083333333333332,752.9411764705883,-21C772.5490196078432,-18.916666666666668,790.1960784313726,40.75,800,57" transform="matrix(1,0,0,1,0,1846)"></path><path d="M10,10C17.720588235294116,19.583333333333336,29.534313725490197,65.16666666666667,47.05882352941177,56C64.58333333333334,46.833333333333336,74.50980392156863,-33.375,94.11764705882354,-34C113.72549019607844,-34.625,121.5686274509804,50.291666666666664,141.1764705882353,53C160.78431372549022,55.708333333333336,168.62745098039215,-22.666666666666668,188.23529411764707,-21C207.843137254902,-19.333333333333332,215.68627450980392,62.666666666666664,235.29411764705884,61C254.90196078431376,59.333333333333336,262.7450980392157,-25.25,282.3529411764706,-29C301.9607843137255,-32.75,309.80392156862746,45.916666666666664,329.4117647058824,43C349.0196078431373,40.083333333333336,356.8627450980392,-49.041666666666664,376.47058823529414,-43C396.07843137254906,-36.958333333333336,403.921568627451,66.16666666666667,423.5294117647059,72C443.13725490196083,77.83333333333333,450.98039215686276,-16.25,470.5882352941177,-15C490.1960784313726,-13.75,498.0392156862746,76.125,517.6470588235295,78C537.2549019607844,79.875,545.0980392156863,-6,564.7058823529412,-6C584.3137254901961,-6,592.156862745098,81.75,611.7647058823529,78C631.3725490196078,74.25,639.2156862745098,-17.541666666666664,658.8235294117648,-24C678.4313725490197,-30.458333333333336,686.2745098039217,46.375,705.8823529411766,47C725.4901960784315,47.625,733.3333333333334,-23.083333333333332,752.9411764705883,-21C772.5490196078432,-18.916666666666668,790.1960784313726,40.75,800,57" transform="matrix(1,0,0,1,0,1775)"></path><path d="M10,10C17.720588235294116,19.583333333333336,29.534313725490197,65.16666666666667,47.05882352941177,56C64.58333333333334,46.833333333333336,74.50980392156863,-33.375,94.11764705882354,-34C113.72549019607844,-34.625,121.5686274509804,50.291666666666664,141.1764705882353,53C160.78431372549022,55.708333333333336,168.62745098039215,-22.666666666666668,188.23529411764707,-21C207.843137254902,-19.333333333333332,215.68627450980392,62.666666666666664,235.29411764705884,61C254.90196078431376,59.333333333333336,262.7450980392157,-25.25,282.3529411764706,-29C301.9607843137255,-32.75,309.80392156862746,45.916666666666664,329.4117647058824,43C349.0196078431373,40.083333333333336,356.8627450980392,-49.041666666666664,376.47058823529414,-43C396.07843137254906,-36.958333333333336,403.921568627451,66.16666666666667,423.5294117647059,72C443.13725490196083,77.83333333333333,450.98039215686276,-16.25,470.5882352941177,-15C490.1960784313726,-13.75,498.0392156862746,76.125,517.6470588235295,78C537.2549019607844,79.875,545.0980392156863,-6,564.7058823529412,-6C584.3137254901961,-6,592.156862745098,81.75,611.7647058823529,78C631.3725490196078,74.25,639.2156862745098,-17.541666666666664,658.8235294117648,-24C678.4313725490197,-30.458333333333336,686.2745098039217,46.375,705.8823529411766,47C725.4901960784315,47.625,733.3333333333334,-23.083333333333332,752.9411764705883,-21C772.5490196078432,-18.916666666666668,790.1960784313726,40.75,800,57" transform="matrix(1,0,0,1,0,1704)"></path><path d="M10,10C17.720588235294116,19.583333333333336,29.534313725490197,65.16666666666667,47.05882352941177,56C64.58333333333334,46.833333333333336,74.50980392156863,-33.375,94.11764705882354,-34C113.72549019607844,-34.625,121.5686274509804,50.291666666666664,141.1764705882353,53C160.78431372549022,55.708333333333336,168.62745098039215,-22.666666666666668,188.23529411764707,-21C207.843137254902,-19.333333333333332,215.68627450980392,62.666666666666664,235.29411764705884,61C254.90196078431376,59.333333333333336,262.7450980392157,-25.25,282.3529411764706,-29C301.9607843137255,-32.75,309.80392156862746,45.916666666666664,329.4117647058824,43C349.0196078431373,40.083333333333336,356.8627450980392,-49.041666666666664,376.47058823529414,-43C396.07843137254906,-36.958333333333336,403.921568627451,66.16666666666667,423.5294117647059,72C443.13725490196083,77.83333333333333,450.98039215686276,-16.25,470.5882352941177,-15C490.1960784313726,-13.75,498.0392156862746,76.125,517.6470588235295,78C537.2549019607844,79.875,545.0980392156863,-6,564.7058823529412,-6C584.3137254901961,-6,592.156862745098,81.75,611.7647058823529,78C631.3725490196078,74.25,639.2156862745098,-17.541666666666664,658.8235294117648,-24C678.4313725490197,-30.458333333333336,686.2745098039217,46.375,705.8823529411766,47C725.4901960784315,47.625,733.3333333333334,-23.083333333333332,752.9411764705883,-21C772.5490196078432,-18.916666666666668,790.1960784313726,40.75,800,57" transform="matrix(1,0,0,1,0,1633)"></path><path d="M10,10C17.720588235294116,19.583333333333336,29.534313725490197,65.16666666666667,47.05882352941177,56C64.58333333333334,46.833333333333336,74.50980392156863,-33.375,94.11764705882354,-34C113.72549019607844,-34.625,121.5686274509804,50.291666666666664,141.1764705882353,53C160.78431372549022,55.708333333333336,168.62745098039215,-22.666666666666668,188.23529411764707,-21C207.843137254902,-19.333333333333332,215.68627450980392,62.666666666666664,235.29411764705884,61C254.90196078431376,59.333333333333336,262.7450980392157,-25.25,282.3529411764706,-29C301.9607843137255,-32.75,309.80392156862746,45.916666666666664,329.4117647058824,43C349.0196078431373,40.083333333333336,356.8627450980392,-49.041666666666664,376.47058823529414,-43C396.07843137254906,-36.958333333333336,403.921568627451,66.16666666666667,423.5294117647059,72C443.13725490196083,77.83333333333333,450.98039215686276,-16.25,470.5882352941177,-15C490.1960784313726,-13.75,498.0392156862746,76.125,517.6470588235295,78C537.2549019607844,79.875,545.0980392156863,-6,564.7058823529412,-6C584.3137254901961,-6,592.156862745098,81.75,611.7647058823529,78C631.3725490196078,74.25,639.2156862745098,-17.541666666666664,658.8235294117648,-24C678.4313725490197,-30.458333333333336,686.2745098039217,46.375,705.8823529411766,47C725.4901960784315,47.625,733.3333333333334,-23.083333333333332,752.9411764705883,-21C772.5490196078432,-18.916666666666668,790.1960784313726,40.75,800,57" transform="matrix(1,0,0,1,0,1562)"></path><path d="M10,10C17.720588235294116,19.583333333333336,29.534313725490197,65.16666666666667,47.05882352941177,56C64.58333333333334,46.833333333333336,74.50980392156863,-33.375,94.11764705882354,-34C113.72549019607844,-34.625,121.5686274509804,50.291666666666664,141.1764705882353,53C160.78431372549022,55.708333333333336,168.62745098039215,-22.666666666666668,188.23529411764707,-21C207.843137254902,-19.333333333333332,215.68627450980392,62.666666666666664,235.29411764705884,61C254.90196078431376,59.333333333333336,262.7450980392157,-25.25,282.3529411764706,-29C301.9607843137255,-32.75,309.80392156862746,45.916666666666664,329.4117647058824,43C349.0196078431373,40.083333333333336,356.8627450980392,-49.041666666666664,376.47058823529414,-43C396.07843137254906,-36.958333333333336,403.921568627451,66.16666666666667,423.5294117647059,72C443.13725490196083,77.83333333333333,450.98039215686276,-16.25,470.5882352941177,-15C490.1960784313726,-13.75,498.0392156862746,76.125,517.6470588235295,78C537.2549019607844,79.875,545.0980392156863,-6,564.7058823529412,-6C584.3137254901961,-6,592.156862745098,81.75,611.7647058823529,78C631.3725490196078,74.25,639.2156862745098,-17.541666666666664,658.8235294117648,-24C678.4313725490197,-30.458333333333336,686.2745098039217,46.375,705.8823529411766,47C725.4901960784315,47.625,733.3333333333334,-23.083333333333332,752.9411764705883,-21C772.5490196078432,-18.916666666666668,790.1960784313726,40.75,800,57" transform="matrix(1,0,0,1,0,1491)"></path><path d="M10,10C17.720588235294116,19.583333333333336,29.534313725490197,65.16666666666667,47.05882352941177,56C64.58333333333334,46.833333333333336,74.50980392156863,-33.375,94.11764705882354,-34C113.72549019607844,-34.625,121.5686274509804,50.291666666666664,141.1764705882353,53C160.78431372549022,55.708333333333336,168.62745098039215,-22.666666666666668,188.23529411764707,-21C207.843137254902,-19.333333333333332,215.68627450980392,62.666666666666664,235.29411764705884,61C254.90196078431376,59.333333333333336,262.7450980392157,-25.25,282.3529411764706,-29C301.9607843137255,-32.75,309.80392156862746,45.916666666666664,329.4117647058824,43C349.0196078431373,40.083333333333336,356.8627450980392,-49.041666666666664,376.47058823529414,-43C396.07843137254906,-36.958333333333336,403.921568627451,66.16666666666667,423.5294117647059,72C443.13725490196083,77.83333333333333,450.98039215686276,-16.25,470.5882352941177,-15C490.1960784313726,-13.75,498.0392156862746,76.125,517.6470588235295,78C537.2549019607844,79.875,545.0980392156863,-6,564.7058823529412,-6C584.3137254901961,-6,592.156862745098,81.75,611.7647058823529,78C631.3725490196078,74.25,639.2156862745098,-17.541666666666664,658.8235294117648,-24C678.4313725490197,-30.458333333333336,686.2745098039217,46.375,705.8823529411766,47C725.4901960784315,47.625,733.3333333333334,-23.083333333333332,752.9411764705883,-21C772.5490196078432,-18.916666666666668,790.1960784313726,40.75,800,57" transform="matrix(1,0,0,1,0,1420)"></path><path d="M10,10C17.720588235294116,19.583333333333336,29.534313725490197,65.16666666666667,47.05882352941177,56C64.58333333333334,46.833333333333336,74.50980392156863,-33.375,94.11764705882354,-34C113.72549019607844,-34.625,121.5686274509804,50.291666666666664,141.1764705882353,53C160.78431372549022,55.708333333333336,168.62745098039215,-22.666666666666668,188.23529411764707,-21C207.843137254902,-19.333333333333332,215.68627450980392,62.666666666666664,235.29411764705884,61C254.90196078431376,59.333333333333336,262.7450980392157,-25.25,282.3529411764706,-29C301.9607843137255,-32.75,309.80392156862746,45.916666666666664,329.4117647058824,43C349.0196078431373,40.083333333333336,356.8627450980392,-49.041666666666664,376.47058823529414,-43C396.07843137254906,-36.958333333333336,403.921568627451,66.16666666666667,423.5294117647059,72C443.13725490196083,77.83333333333333,450.98039215686276,-16.25,470.5882352941177,-15C490.1960784313726,-13.75,498.0392156862746,76.125,517.6470588235295,78C537.2549019607844,79.875,545.0980392156863,-6,564.7058823529412,-6C584.3137254901961,-6,592.156862745098,81.75,611.7647058823529,78C631.3725490196078,74.25,639.2156862745098,-17.541666666666664,658.8235294117648,-24C678.4313725490197,-30.458333333333336,686.2745098039217,46.375,705.8823529411766,47C725.4901960784315,47.625,733.3333333333334,-23.083333333333332,752.9411764705883,-21C772.5490196078432,-18.916666666666668,790.1960784313726,40.75,800,57" transform="matrix(1,0,0,1,0,1349)"></path><path d="M10,10C17.720588235294116,19.583333333333336,29.534313725490197,65.16666666666667,47.05882352941177,56C64.58333333333334,46.833333333333336,74.50980392156863,-33.375,94.11764705882354,-34C113.72549019607844,-34.625,121.5686274509804,50.291666666666664,141.1764705882353,53C160.78431372549022,55.708333333333336,168.62745098039215,-22.666666666666668,188.23529411764707,-21C207.843137254902,-19.333333333333332,215.68627450980392,62.666666666666664,235.29411764705884,61C254.90196078431376,59.333333333333336,262.7450980392157,-25.25,282.3529411764706,-29C301.9607843137255,-32.75,309.80392156862746,45.916666666666664,329.4117647058824,43C349.0196078431373,40.083333333333336,356.8627450980392,-49.041666666666664,376.47058823529414,-43C396.07843137254906,-36.958333333333336,403.921568627451,66.16666666666667,423.5294117647059,72C443.13725490196083,77.83333333333333,450.98039215686276,-16.25,470.5882352941177,-15C490.1960784313726,-13.75,498.0392156862746,76.125,517.6470588235295,78C537.2549019607844,79.875,545.0980392156863,-6,564.7058823529412,-6C584.3137254901961,-6,592.156862745098,81.75,611.7647058823529,78C631.3725490196078,74.25,639.2156862745098,-17.541666666666664,658.8235294117648,-24C678.4313725490197,-30.458333333333336,686.2745098039217,46.375,705.8823529411766,47C725.4901960784315,47.625,733.3333333333334,-23.083333333333332,752.9411764705883,-21C772.5490196078432,-18.916666666666668,790.1960784313726,40.75,800,57" transform="matrix(1,0,0,1,0,1278)"></path><path d="M10,10C17.720588235294116,19.583333333333336,29.534313725490197,65.16666666666667,47.05882352941177,56C64.58333333333334,46.833333333333336,74.50980392156863,-33.375,94.11764705882354,-34C113.72549019607844,-34.625,121.5686274509804,50.291666666666664,141.1764705882353,53C160.78431372549022,55.708333333333336,168.62745098039215,-22.666666666666668,188.23529411764707,-21C207.843137254902,-19.333333333333332,215.68627450980392,62.666666666666664,235.29411764705884,61C254.90196078431376,59.333333333333336,262.7450980392157,-25.25,282.3529411764706,-29C301.9607843137255,-32.75,309.80392156862746,45.916666666666664,329.4117647058824,43C349.0196078431373,40.083333333333336,356.8627450980392,-49.041666666666664,376.47058823529414,-43C396.07843137254906,-36.958333333333336,403.921568627451,66.16666666666667,423.5294117647059,72C443.13725490196083,77.83333333333333,450.98039215686276,-16.25,470.5882352941177,-15C490.1960784313726,-13.75,498.0392156862746,76.125,517.6470588235295,78C537.2549019607844,79.875,545.0980392156863,-6,564.7058823529412,-6C584.3137254901961,-6,592.156862745098,81.75,611.7647058823529,78C631.3725490196078,74.25,639.2156862745098,-17.541666666666664,658.8235294117648,-24C678.4313725490197,-30.458333333333336,686.2745098039217,46.375,705.8823529411766,47C725.4901960784315,47.625,733.3333333333334,-23.083333333333332,752.9411764705883,-21C772.5490196078432,-18.916666666666668,790.1960784313726,40.75,800,57" transform="matrix(1,0,0,1,0,1207)"></path><path d="M10,10C17.720588235294116,19.583333333333336,29.534313725490197,65.16666666666667,47.05882352941177,56C64.58333333333334,46.833333333333336,74.50980392156863,-33.375,94.11764705882354,-34C113.72549019607844,-34.625,121.5686274509804,50.291666666666664,141.1764705882353,53C160.78431372549022,55.708333333333336,168.62745098039215,-22.666666666666668,188.23529411764707,-21C207.843137254902,-19.333333333333332,215.68627450980392,62.666666666666664,235.29411764705884,61C254.90196078431376,59.333333333333336,262.7450980392157,-25.25,282.3529411764706,-29C301.9607843137255,-32.75,309.80392156862746,45.916666666666664,329.4117647058824,43C349.0196078431373,40.083333333333336,356.8627450980392,-49.041666666666664,376.47058823529414,-43C396.07843137254906,-36.958333333333336,403.921568627451,66.16666666666667,423.5294117647059,72C443.13725490196083,77.83333333333333,450.98039215686276,-16.25,470.5882352941177,-15C490.1960784313726,-13.75,498.0392156862746,76.125,517.6470588235295,78C537.2549019607844,79.875,545.0980392156863,-6,564.7058823529412,-6C584.3137254901961,-6,592.156862745098,81.75,611.7647058823529,78C631.3725490196078,74.25,639.2156862745098,-17.541666666666664,658.8235294117648,-24C678.4313725490197,-30.458333333333336,686.2745098039217,46.375,705.8823529411766,47C725.4901960784315,47.625,733.3333333333334,-23.083333333333332,752.9411764705883,-21C772.5490196078432,-18.916666666666668,790.1960784313726,40.75,800,57" transform="matrix(1,0,0,1,0,1136)"></path><path d="M10,10C17.720588235294116,19.583333333333336,29.534313725490197,65.16666666666667,47.05882352941177,56C64.58333333333334,46.833333333333336,74.50980392156863,-33.375,94.11764705882354,-34C113.72549019607844,-34.625,121.5686274509804,50.291666666666664,141.1764705882353,53C160.78431372549022,55.708333333333336,168.62745098039215,-22.666666666666668,188.23529411764707,-21C207.843137254902,-19.333333333333332,215.68627450980392,62.666666666666664,235.29411764705884,61C254.90196078431376,59.333333333333336,262.7450980392157,-25.25,282.3529411764706,-29C301.9607843137255,-32.75,309.80392156862746,45.916666666666664,329.4117647058824,43C349.0196078431373,40.083333333333336,356.8627450980392,-49.041666666666664,376.47058823529414,-43C396.07843137254906,-36.958333333333336,403.921568627451,66.16666666666667,423.5294117647059,72C443.13725490196083,77.83333333333333,450.98039215686276,-16.25,470.5882352941177,-15C490.1960784313726,-13.75,498.0392156862746,76.125,517.6470588235295,78C537.2549019607844,79.875,545.0980392156863,-6,564.7058823529412,-6C584.3137254901961,-6,592.156862745098,81.75,611.7647058823529,78C631.3725490196078,74.25,639.2156862745098,-17.541666666666664,658.8235294117648,-24C678.4313725490197,-30.458333333333336,686.2745098039217,46.375,705.8823529411766,47C725.4901960784315,47.625,733.3333333333334,-23.083333333333332,752.9411764705883,-21C772.5490196078432,-18.916666666666668,790.1960784313726,40.75,800,57" transform="matrix(1,0,0,1,0,1065)"></path><path d="M10,10C17.720588235294116,19.583333333333336,29.534313725490197,65.16666666666667,47.05882352941177,56C64.58333333333334,46.833333333333336,74.50980392156863,-33.375,94.11764705882354,-34C113.72549019607844,-34.625,121.5686274509804,50.291666666666664,141.1764705882353,53C160.78431372549022,55.708333333333336,168.62745098039215,-22.666666666666668,188.23529411764707,-21C207.843137254902,-19.333333333333332,215.68627450980392,62.666666666666664,235.29411764705884,61C254.90196078431376,59.333333333333336,262.7450980392157,-25.25,282.3529411764706,-29C301.9607843137255,-32.75,309.80392156862746,45.916666666666664,329.4117647058824,43C349.0196078431373,40.083333333333336,356.8627450980392,-49.041666666666664,376.47058823529414,-43C396.07843137254906,-36.958333333333336,403.921568627451,66.16666666666667,423.5294117647059,72C443.13725490196083,77.83333333333333,450.98039215686276,-16.25,470.5882352941177,-15C490.1960784313726,-13.75,498.0392156862746,76.125,517.6470588235295,78C537.2549019607844,79.875,545.0980392156863,-6,564.7058823529412,-6C584.3137254901961,-6,592.156862745098,81.75,611.7647058823529,78C631.3725490196078,74.25,639.2156862745098,-17.541666666666664,658.8235294117648,-24C678.4313725490197,-30.458333333333336,686.2745098039217,46.375,705.8823529411766,47C725.4901960784315,47.625,733.3333333333334,-23.083333333333332,752.9411764705883,-21C772.5490196078432,-18.916666666666668,790.1960784313726,40.75,800,57" transform="matrix(1,0,0,1,0,994)"></path><path d="M10,10C17.720588235294116,19.583333333333336,29.534313725490197,65.16666666666667,47.05882352941177,56C64.58333333333334,46.833333333333336,74.50980392156863,-33.375,94.11764705882354,-34C113.72549019607844,-34.625,121.5686274509804,50.291666666666664,141.1764705882353,53C160.78431372549022,55.708333333333336,168.62745098039215,-22.666666666666668,188.23529411764707,-21C207.843137254902,-19.333333333333332,215.68627450980392,62.666666666666664,235.29411764705884,61C254.90196078431376,59.333333333333336,262.7450980392157,-25.25,282.3529411764706,-29C301.9607843137255,-32.75,309.80392156862746,45.916666666666664,329.4117647058824,43C349.0196078431373,40.083333333333336,356.8627450980392,-49.041666666666664,376.47058823529414,-43C396.07843137254906,-36.958333333333336,403.921568627451,66.16666666666667,423.5294117647059,72C443.13725490196083,77.83333333333333,450.98039215686276,-16.25,470.5882352941177,-15C490.1960784313726,-13.75,498.0392156862746,76.125,517.6470588235295,78C537.2549019607844,79.875,545.0980392156863,-6,564.7058823529412,-6C584.3137254901961,-6,592.156862745098,81.75,611.7647058823529,78C631.3725490196078,74.25,639.2156862745098,-17.541666666666664,658.8235294117648,-24C678.4313725490197,-30.458333333333336,686.2745098039217,46.375,705.8823529411766,47C725.4901960784315,47.625,733.3333333333334,-23.083333333333332,752.9411764705883,-21C772.5490196078432,-18.916666666666668,790.1960784313726,40.75,800,57" transform="matrix(1,0,0,1,0,923)"></path><path d="M10,10C17.720588235294116,19.583333333333336,29.534313725490197,65.16666666666667,47.05882352941177,56C64.58333333333334,46.833333333333336,74.50980392156863,-33.375,94.11764705882354,-34C113.72549019607844,-34.625,121.5686274509804,50.291666666666664,141.1764705882353,53C160.78431372549022,55.708333333333336,168.62745098039215,-22.666666666666668,188.23529411764707,-21C207.843137254902,-19.333333333333332,215.68627450980392,62.666666666666664,235.29411764705884,61C254.90196078431376,59.333333333333336,262.7450980392157,-25.25,282.3529411764706,-29C301.9607843137255,-32.75,309.80392156862746,45.916666666666664,329.4117647058824,43C349.0196078431373,40.083333333333336,356.8627450980392,-49.041666666666664,376.47058823529414,-43C396.07843137254906,-36.958333333333336,403.921568627451,66.16666666666667,423.5294117647059,72C443.13725490196083,77.83333333333333,450.98039215686276,-16.25,470.5882352941177,-15C490.1960784313726,-13.75,498.0392156862746,76.125,517.6470588235295,78C537.2549019607844,79.875,545.0980392156863,-6,564.7058823529412,-6C584.3137254901961,-6,592.156862745098,81.75,611.7647058823529,78C631.3725490196078,74.25,639.2156862745098,-17.541666666666664,658.8235294117648,-24C678.4313725490197,-30.458333333333336,686.2745098039217,46.375,705.8823529411766,47C725.4901960784315,47.625,733.3333333333334,-23.083333333333332,752.9411764705883,-21C772.5490196078432,-18.916666666666668,790.1960784313726,40.75,800,57" transform="matrix(1,0,0,1,0,852)"></path><path d="M10,10C17.720588235294116,19.583333333333336,29.534313725490197,65.16666666666667,47.05882352941177,56C64.58333333333334,46.833333333333336,74.50980392156863,-33.375,94.11764705882354,-34C113.72549019607844,-34.625,121.5686274509804,50.291666666666664,141.1764705882353,53C160.78431372549022,55.708333333333336,168.62745098039215,-22.666666666666668,188.23529411764707,-21C207.843137254902,-19.333333333333332,215.68627450980392,62.666666666666664,235.29411764705884,61C254.90196078431376,59.333333333333336,262.7450980392157,-25.25,282.3529411764706,-29C301.9607843137255,-32.75,309.80392156862746,45.916666666666664,329.4117647058824,43C349.0196078431373,40.083333333333336,356.8627450980392,-49.041666666666664,376.47058823529414,-43C396.07843137254906,-36.958333333333336,403.921568627451,66.16666666666667,423.5294117647059,72C443.13725490196083,77.83333333333333,450.98039215686276,-16.25,470.5882352941177,-15C490.1960784313726,-13.75,498.0392156862746,76.125,517.6470588235295,78C537.2549019607844,79.875,545.0980392156863,-6,564.7058823529412,-6C584.3137254901961,-6,592.156862745098,81.75,611.7647058823529,78C631.3725490196078,74.25,639.2156862745098,-17.541666666666664,658.8235294117648,-24C678.4313725490197,-30.458333333333336,686.2745098039217,46.375,705.8823529411766,47C725.4901960784315,47.625,733.3333333333334,-23.083333333333332,752.9411764705883,-21C772.5490196078432,-18.916666666666668,790.1960784313726,40.75,800,57" transform="matrix(1,0,0,1,0,781)"></path><path d="M10,10C17.720588235294116,19.583333333333336,29.534313725490197,65.16666666666667,47.05882352941177,56C64.58333333333334,46.833333333333336,74.50980392156863,-33.375,94.11764705882354,-34C113.72549019607844,-34.625,121.5686274509804,50.291666666666664,141.1764705882353,53C160.78431372549022,55.708333333333336,168.62745098039215,-22.666666666666668,188.23529411764707,-21C207.843137254902,-19.333333333333332,215.68627450980392,62.666666666666664,235.29411764705884,61C254.90196078431376,59.333333333333336,262.7450980392157,-25.25,282.3529411764706,-29C301.9607843137255,-32.75,309.80392156862746,45.916666666666664,329.4117647058824,43C349.0196078431373,40.083333333333336,356.8627450980392,-49.041666666666664,376.47058823529414,-43C396.07843137254906,-36.958333333333336,403.921568627451,66.16666666666667,423.5294117647059,72C443.13725490196083,77.83333333333333,450.98039215686276,-16.25,470.5882352941177,-15C490.1960784313726,-13.75,498.0392156862746,76.125,517.6470588235295,78C537.2549019607844,79.875,545.0980392156863,-6,564.7058823529412,-6C584.3137254901961,-6,592.156862745098,81.75,611.7647058823529,78C631.3725490196078,74.25,639.2156862745098,-17.541666666666664,658.8235294117648,-24C678.4313725490197,-30.458333333333336,686.2745098039217,46.375,705.8823529411766,47C725.4901960784315,47.625,733.3333333333334,-23.083333333333332,752.9411764705883,-21C772.5490196078432,-18.916666666666668,790.1960784313726,40.75,800,57" transform="matrix(1,0,0,1,0,710)"></path><path d="M10,10C17.720588235294116,19.583333333333336,29.534313725490197,65.16666666666667,47.05882352941177,56C64.58333333333334,46.833333333333336,74.50980392156863,-33.375,94.11764705882354,-34C113.72549019607844,-34.625,121.5686274509804,50.291666666666664,141.1764705882353,53C160.78431372549022,55.708333333333336,168.62745098039215,-22.666666666666668,188.23529411764707,-21C207.843137254902,-19.333333333333332,215.68627450980392,62.666666666666664,235.29411764705884,61C254.90196078431376,59.333333333333336,262.7450980392157,-25.25,282.3529411764706,-29C301.9607843137255,-32.75,309.80392156862746,45.916666666666664,329.4117647058824,43C349.0196078431373,40.083333333333336,356.8627450980392,-49.041666666666664,376.47058823529414,-43C396.07843137254906,-36.958333333333336,403.921568627451,66.16666666666667,423.5294117647059,72C443.13725490196083,77.83333333333333,450.98039215686276,-16.25,470.5882352941177,-15C490.1960784313726,-13.75,498.0392156862746,76.125,517.6470588235295,78C537.2549019607844,79.875,545.0980392156863,-6,564.7058823529412,-6C584.3137254901961,-6,592.156862745098,81.75,611.7647058823529,78C631.3725490196078,74.25,639.2156862745098,-17.541666666666664,658.8235294117648,-24C678.4313725490197,-30.458333333333336,686.2745098039217,46.375,705.8823529411766,47C725.4901960784315,47.625,733.3333333333334,-23.083333333333332,752.9411764705883,-21C772.5490196078432,-18.916666666666668,790.1960784313726,40.75,800,57" transform="matrix(1,0,0,1,0,639)"></path><path d="M10,10C17.720588235294116,19.583333333333336,29.534313725490197,65.16666666666667,47.05882352941177,56C64.58333333333334,46.833333333333336,74.50980392156863,-33.375,94.11764705882354,-34C113.72549019607844,-34.625,121.5686274509804,50.291666666666664,141.1764705882353,53C160.78431372549022,55.708333333333336,168.62745098039215,-22.666666666666668,188.23529411764707,-21C207.843137254902,-19.333333333333332,215.68627450980392,62.666666666666664,235.29411764705884,61C254.90196078431376,59.333333333333336,262.7450980392157,-25.25,282.3529411764706,-29C301.9607843137255,-32.75,309.80392156862746,45.916666666666664,329.4117647058824,43C349.0196078431373,40.083333333333336,356.8627450980392,-49.041666666666664,376.47058823529414,-43C396.07843137254906,-36.958333333333336,403.921568627451,66.16666666666667,423.5294117647059,72C443.13725490196083,77.83333333333333,450.98039215686276,-16.25,470.5882352941177,-15C490.1960784313726,-13.75,498.0392156862746,76.125,517.6470588235295,78C537.2549019607844,79.875,545.0980392156863,-6,564.7058823529412,-6C584.3137254901961,-6,592.156862745098,81.75,611.7647058823529,78C631.3725490196078,74.25,639.2156862745098,-17.541666666666664,658.8235294117648,-24C678.4313725490197,-30.458333333333336,686.2745098039217,46.375,705.8823529411766,47C725.4901960784315,47.625,733.3333333333334,-23.083333333333332,752.9411764705883,-21C772.5490196078432,-18.916666666666668,790.1960784313726,40.75,800,57" transform="matrix(1,0,0,1,0,568)"></path><path d="M10,10C17.720588235294116,19.583333333333336,29.534313725490197,65.16666666666667,47.05882352941177,56C64.58333333333334,46.833333333333336,74.50980392156863,-33.375,94.11764705882354,-34C113.72549019607844,-34.625,121.5686274509804,50.291666666666664,141.1764705882353,53C160.78431372549022,55.708333333333336,168.62745098039215,-22.666666666666668,188.23529411764707,-21C207.843137254902,-19.333333333333332,215.68627450980392,62.666666666666664,235.29411764705884,61C254.90196078431376,59.333333333333336,262.7450980392157,-25.25,282.3529411764706,-29C301.9607843137255,-32.75,309.80392156862746,45.916666666666664,329.4117647058824,43C349.0196078431373,40.083333333333336,356.8627450980392,-49.041666666666664,376.47058823529414,-43C396.07843137254906,-36.958333333333336,403.921568627451,66.16666666666667,423.5294117647059,72C443.13725490196083,77.83333333333333,450.98039215686276,-16.25,470.5882352941177,-15C490.1960784313726,-13.75,498.0392156862746,76.125,517.6470588235295,78C537.2549019607844,79.875,545.0980392156863,-6,564.7058823529412,-6C584.3137254901961,-6,592.156862745098,81.75,611.7647058823529,78C631.3725490196078,74.25,639.2156862745098,-17.541666666666664,658.8235294117648,-24C678.4313725490197,-30.458333333333336,686.2745098039217,46.375,705.8823529411766,47C725.4901960784315,47.625,733.3333333333334,-23.083333333333332,752.9411764705883,-21C772.5490196078432,-18.916666666666668,790.1960784313726,40.75,800,57" transform="matrix(1,0,0,1,0,497)"></path><path d="M10,10C17.720588235294116,19.583333333333336,29.534313725490197,65.16666666666667,47.05882352941177,56C64.58333333333334,46.833333333333336,74.50980392156863,-33.375,94.11764705882354,-34C113.72549019607844,-34.625,121.5686274509804,50.291666666666664,141.1764705882353,53C160.78431372549022,55.708333333333336,168.62745098039215,-22.666666666666668,188.23529411764707,-21C207.843137254902,-19.333333333333332,215.68627450980392,62.666666666666664,235.29411764705884,61C254.90196078431376,59.333333333333336,262.7450980392157,-25.25,282.3529411764706,-29C301.9607843137255,-32.75,309.80392156862746,45.916666666666664,329.4117647058824,43C349.0196078431373,40.083333333333336,356.8627450980392,-49.041666666666664,376.47058823529414,-43C396.07843137254906,-36.958333333333336,403.921568627451,66.16666666666667,423.5294117647059,72C443.13725490196083,77.83333333333333,450.98039215686276,-16.25,470.5882352941177,-15C490.1960784313726,-13.75,498.0392156862746,76.125,517.6470588235295,78C537.2549019607844,79.875,545.0980392156863,-6,564.7058823529412,-6C584.3137254901961,-6,592.156862745098,81.75,611.7647058823529,78C631.3725490196078,74.25,639.2156862745098,-17.541666666666664,658.8235294117648,-24C678.4313725490197,-30.458333333333336,686.2745098039217,46.375,705.8823529411766,47C725.4901960784315,47.625,733.3333333333334,-23.083333333333332,752.9411764705883,-21C772.5490196078432,-18.916666666666668,790.1960784313726,40.75,800,57" transform="matrix(1,0,0,1,0,426)"></path><path d="M10,10C17.720588235294116,19.583333333333336,29.534313725490197,65.16666666666667,47.05882352941177,56C64.58333333333334,46.833333333333336,74.50980392156863,-33.375,94.11764705882354,-34C113.72549019607844,-34.625,121.5686274509804,50.291666666666664,141.1764705882353,53C160.78431372549022,55.708333333333336,168.62745098039215,-22.666666666666668,188.23529411764707,-21C207.843137254902,-19.333333333333332,215.68627450980392,62.666666666666664,235.29411764705884,61C254.90196078431376,59.333333333333336,262.7450980392157,-25.25,282.3529411764706,-29C301.9607843137255,-32.75,309.80392156862746,45.916666666666664,329.4117647058824,43C349.0196078431373,40.083333333333336,356.8627450980392,-49.041666666666664,376.47058823529414,-43C396.07843137254906,-36.958333333333336,403.921568627451,66.16666666666667,423.5294117647059,72C443.13725490196083,77.83333333333333,450.98039215686276,-16.25,470.5882352941177,-15C490.1960784313726,-13.75,498.0392156862746,76.125,517.6470588235295,78C537.2549019607844,79.875,545.0980392156863,-6,564.7058823529412,-6C584.3137254901961,-6,592.156862745098,81.75,611.7647058823529,78C631.3725490196078,74.25,639.2156862745098,-17.541666666666664,658.8235294117648,-24C678.4313725490197,-30.458333333333336,686.2745098039217,46.375,705.8823529411766,47C725.4901960784315,47.625,733.3333333333334,-23.083333333333332,752.9411764705883,-21C772.5490196078432,-18.916666666666668,790.1960784313726,40.75,800,57" transform="matrix(1,0,0,1,0,355)"></path><path d="M10,10C17.720588235294116,19.583333333333336,29.534313725490197,65.16666666666667,47.05882352941177,56C64.58333333333334,46.833333333333336,74.50980392156863,-33.375,94.11764705882354,-34C113.72549019607844,-34.625,121.5686274509804,50.291666666666664,141.1764705882353,53C160.78431372549022,55.708333333333336,168.62745098039215,-22.666666666666668,188.23529411764707,-21C207.843137254902,-19.333333333333332,215.68627450980392,62.666666666666664,235.29411764705884,61C254.90196078431376,59.333333333333336,262.7450980392157,-25.25,282.3529411764706,-29C301.9607843137255,-32.75,309.80392156862746,45.916666666666664,329.4117647058824,43C349.0196078431373,40.083333333333336,356.8627450980392,-49.041666666666664,376.47058823529414,-43C396.07843137254906,-36.958333333333336,403.921568627451,66.16666666666667,423.5294117647059,72C443.13725490196083,77.83333333333333,450.98039215686276,-16.25,470.5882352941177,-15C490.1960784313726,-13.75,498.0392156862746,76.125,517.6470588235295,78C537.2549019607844,79.875,545.0980392156863,-6,564.7058823529412,-6C584.3137254901961,-6,592.156862745098,81.75,611.7647058823529,78C631.3725490196078,74.25,639.2156862745098,-17.541666666666664,658.8235294117648,-24C678.4313725490197,-30.458333333333336,686.2745098039217,46.375,705.8823529411766,47C725.4901960784315,47.625,733.3333333333334,-23.083333333333332,752.9411764705883,-21C772.5490196078432,-18.916666666666668,790.1960784313726,40.75,800,57" transform="matrix(1,0,0,1,0,284)"></path><path d="M10,10C17.720588235294116,19.583333333333336,29.534313725490197,65.16666666666667,47.05882352941177,56C64.58333333333334,46.833333333333336,74.50980392156863,-33.375,94.11764705882354,-34C113.72549019607844,-34.625,121.5686274509804,50.291666666666664,141.1764705882353,53C160.78431372549022,55.708333333333336,168.62745098039215,-22.666666666666668,188.23529411764707,-21C207.843137254902,-19.333333333333332,215.68627450980392,62.666666666666664,235.29411764705884,61C254.90196078431376,59.333333333333336,262.7450980392157,-25.25,282.3529411764706,-29C301.9607843137255,-32.75,309.80392156862746,45.916666666666664,329.4117647058824,43C349.0196078431373,40.083333333333336,356.8627450980392,-49.041666666666664,376.47058823529414,-43C396.07843137254906,-36.958333333333336,403.921568627451,66.16666666666667,423.5294117647059,72C443.13725490196083,77.83333333333333,450.98039215686276,-16.25,470.5882352941177,-15C490.1960784313726,-13.75,498.0392156862746,76.125,517.6470588235295,78C537.2549019607844,79.875,545.0980392156863,-6,564.7058823529412,-6C584.3137254901961,-6,592.156862745098,81.75,611.7647058823529,78C631.3725490196078,74.25,639.2156862745098,-17.541666666666664,658.8235294117648,-24C678.4313725490197,-30.458333333333336,686.2745098039217,46.375,705.8823529411766,47C725.4901960784315,47.625,733.3333333333334,-23.083333333333332,752.9411764705883,-21C772.5490196078432,-18.916666666666668,790.1960784313726,40.75,800,57" transform="matrix(1,0,0,1,0,213)"></path><path d="M10,10C17.720588235294116,19.583333333333336,29.534313725490197,65.16666666666667,47.05882352941177,56C64.58333333333334,46.833333333333336,74.50980392156863,-33.375,94.11764705882354,-34C113.72549019607844,-34.625,121.5686274509804,50.291666666666664,141.1764705882353,53C160.78431372549022,55.708333333333336,168.62745098039215,-22.666666666666668,188.23529411764707,-21C207.843137254902,-19.333333333333332,215.68627450980392,62.666666666666664,235.29411764705884,61C254.90196078431376,59.333333333333336,262.7450980392157,-25.25,282.3529411764706,-29C301.9607843137255,-32.75,309.80392156862746,45.916666666666664,329.4117647058824,43C349.0196078431373,40.083333333333336,356.8627450980392,-49.041666666666664,376.47058823529414,-43C396.07843137254906,-36.958333333333336,403.921568627451,66.16666666666667,423.5294117647059,72C443.13725490196083,77.83333333333333,450.98039215686276,-16.25,470.5882352941177,-15C490.1960784313726,-13.75,498.0392156862746,76.125,517.6470588235295,78C537.2549019607844,79.875,545.0980392156863,-6,564.7058823529412,-6C584.3137254901961,-6,592.156862745098,81.75,611.7647058823529,78C631.3725490196078,74.25,639.2156862745098,-17.541666666666664,658.8235294117648,-24C678.4313725490197,-30.458333333333336,686.2745098039217,46.375,705.8823529411766,47C725.4901960784315,47.625,733.3333333333334,-23.083333333333332,752.9411764705883,-21C772.5490196078432,-18.916666666666668,790.1960784313726,40.75,800,57" transform="matrix(1,0,0,1,0,142)"></path><path d="M10,10C17.720588235294116,19.583333333333336,29.534313725490197,65.16666666666667,47.05882352941177,56C64.58333333333334,46.833333333333336,74.50980392156863,-33.375,94.11764705882354,-34C113.72549019607844,-34.625,121.5686274509804,50.291666666666664,141.1764705882353,53C160.78431372549022,55.708333333333336,168.62745098039215,-22.666666666666668,188.23529411764707,-21C207.843137254902,-19.333333333333332,215.68627450980392,62.666666666666664,235.29411764705884,61C254.90196078431376,59.333333333333336,262.7450980392157,-25.25,282.3529411764706,-29C301.9607843137255,-32.75,309.80392156862746,45.916666666666664,329.4117647058824,43C349.0196078431373,40.083333333333336,356.8627450980392,-49.041666666666664,376.47058823529414,-43C396.07843137254906,-36.958333333333336,403.921568627451,66.16666666666667,423.5294117647059,72C443.13725490196083,77.83333333333333,450.98039215686276,-16.25,470.5882352941177,-15C490.1960784313726,-13.75,498.0392156862746,76.125,517.6470588235295,78C537.2549019607844,79.875,545.0980392156863,-6,564.7058823529412,-6C584.3137254901961,-6,592.156862745098,81.75,611.7647058823529,78C631.3725490196078,74.25,639.2156862745098,-17.541666666666664,658.8235294117648,-24C678.4313725490197,-30.458333333333336,686.2745098039217,46.375,705.8823529411766,47C725.4901960784315,47.625,733.3333333333334,-23.083333333333332,752.9411764705883,-21C772.5490196078432,-18.916666666666668,790.1960784313726,40.75,800,57" transform="matrix(1,0,0,1,0,71)"></path></g></svg>