<svg xmlns="http://www.w3.org/2000/svg" version="1.1" xmlns:xlink="http://www.w3.org/1999/xlink" xmlns:svgjs="http://svgjs.dev/svgjs" viewBox="0 0 1422 800"><defs><linearGradient x1="50%" y1="0%" x2="50%" y2="100%" id="oooscillate-grad"><stop stop-color="#E31B27" stop-opacity="1" offset="0%"></stop><stop stop-color="hsl(0, 100%, 26%)" stop-opacity="1" offset="100%"></stop></linearGradient></defs><g stroke-width="4" stroke="url(#oooscillate-grad)" fill="none" stroke-linecap="round"><path d="M 0 308 Q 355.5 190 711 400 Q 1066.5 610 1422 308" opacity="0.35"></path><path d="M 0 301 Q 355.5 190 711 400 Q 1066.5 610 1422 301" opacity="0.57"></path><path d="M 0 294 Q 355.5 190 711 400 Q 1066.5 610 1422 294" opacity="0.39"></path><path d="M 0 287 Q 355.5 190 711 400 Q 1066.5 610 1422 287" opacity="0.32"></path><path d="M 0 280 Q 355.5 190 711 400 Q 1066.5 610 1422 280" opacity="0.59"></path><path d="M 0 273 Q 355.5 190 711 400 Q 1066.5 610 1422 273" opacity="0.09"></path><path d="M 0 266 Q 355.5 190 711 400 Q 1066.5 610 1422 266" opacity="0.56"></path><path d="M 0 259 Q 355.5 190 711 400 Q 1066.5 610 1422 259" opacity="0.38"></path><path d="M 0 252 Q 355.5 190 711 400 Q 1066.5 610 1422 252" opacity="0.12"></path><path d="M 0 245 Q 355.5 190 711 400 Q 1066.5 610 1422 245" opacity="0.85"></path><path d="M 0 238 Q 355.5 190 711 400 Q 1066.5 610 1422 238" opacity="0.24"></path><path d="M 0 231 Q 355.5 190 711 400 Q 1066.5 610 1422 231" opacity="0.21"></path><path d="M 0 224 Q 355.5 190 711 400 Q 1066.5 610 1422 224" opacity="0.54"></path><path d="M 0 217 Q 355.5 190 711 400 Q 1066.5 610 1422 217" opacity="0.99"></path><path d="M 0 210 Q 355.5 190 711 400 Q 1066.5 610 1422 210" opacity="0.85"></path><path d="M 0 203 Q 355.5 190 711 400 Q 1066.5 610 1422 203" opacity="0.27"></path><path d="M 0 196 Q 355.5 190 711 400 Q 1066.5 610 1422 196" opacity="0.88"></path><path d="M 0 189 Q 355.5 190 711 400 Q 1066.5 610 1422 189" opacity="0.12"></path><path d="M 0 182 Q 355.5 190 711 400 Q 1066.5 610 1422 182" opacity="0.55"></path><path d="M 0 175 Q 355.5 190 711 400 Q 1066.5 610 1422 175" opacity="0.40"></path><path d="M 0 168 Q 355.5 190 711 400 Q 1066.5 610 1422 168" opacity="0.86"></path><path d="M 0 161 Q 355.5 190 711 400 Q 1066.5 610 1422 161" opacity="1.00"></path><path d="M 0 154 Q 355.5 190 711 400 Q 1066.5 610 1422 154" opacity="0.70"></path><path d="M 0 147 Q 355.5 190 711 400 Q 1066.5 610 1422 147" opacity="0.91"></path><path d="M 0 140 Q 355.5 190 711 400 Q 1066.5 610 1422 140" opacity="0.70"></path><path d="M 0 133 Q 355.5 190 711 400 Q 1066.5 610 1422 133" opacity="0.85"></path><path d="M 0 126 Q 355.5 190 711 400 Q 1066.5 610 1422 126" opacity="0.81"></path><path d="M 0 119 Q 355.5 190 711 400 Q 1066.5 610 1422 119" opacity="0.29"></path><path d="M 0 112 Q 355.5 190 711 400 Q 1066.5 610 1422 112" opacity="0.66"></path><path d="M 0 105 Q 355.5 190 711 400 Q 1066.5 610 1422 105" opacity="0.67"></path><path d="M 0 98 Q 355.5 190 711 400 Q 1066.5 610 1422 98" opacity="0.77"></path><path d="M 0 91 Q 355.5 190 711 400 Q 1066.5 610 1422 91" opacity="0.34"></path><path d="M 0 84 Q 355.5 190 711 400 Q 1066.5 610 1422 84" opacity="0.32"></path><path d="M 0 77 Q 355.5 190 711 400 Q 1066.5 610 1422 77" opacity="0.75"></path><path d="M 0 70 Q 355.5 190 711 400 Q 1066.5 610 1422 70" opacity="0.38"></path><path d="M 0 63 Q 355.5 190 711 400 Q 1066.5 610 1422 63" opacity="0.14"></path><path d="M 0 56 Q 355.5 190 711 400 Q 1066.5 610 1422 56" opacity="0.20"></path><path d="M 0 49 Q 355.5 190 711 400 Q 1066.5 610 1422 49" opacity="0.76"></path><path d="M 0 42 Q 355.5 190 711 400 Q 1066.5 610 1422 42" opacity="0.64"></path><path d="M 0 35 Q 355.5 190 711 400 Q 1066.5 610 1422 35" opacity="0.40"></path><path d="M 0 28 Q 355.5 190 711 400 Q 1066.5 610 1422 28" opacity="0.72"></path><path d="M 0 21 Q 355.5 190 711 400 Q 1066.5 610 1422 21" opacity="0.88"></path><path d="M 0 14 Q 355.5 190 711 400 Q 1066.5 610 1422 14" opacity="0.25"></path></g></svg>